<svg xmlns="http://www.w3.org/2000/svg" width="16" height="16" fill="none" viewBox="0 0 16 16">
  <path fill="#fff" d="M13.714 1.333H2.283a.956.956 0 0 0-.95.962v11.41c0 .53.426.962.95.962h11.431a.96.96 0 0 0 .953-.962V2.295a.959.959 0 0 0-.953-.962Zm-8.35 11.429H3.386V6.399h1.98v6.363h-.004Zm-.99-7.232a1.146 1.146 0 1 1 .001-2.293 1.146 1.146 0 0 1-.001 2.293Zm8.396 7.232h-1.976V9.667c0-.738-.015-1.688-1.027-1.688-1.03 0-1.188.804-1.188 1.634v3.149H6.604V6.399H8.5v.869h.027c.265-.5.91-1.027 1.872-1.027 2 0 2.372 1.319 2.372 3.033v3.488Z"/>
</svg>
